{"asset":{"version":"2.0","generator":"babylon.js glTF exporter for Autodesk MAYA 2023 v20221031.2"},"scene":0,"scenes":[{"nodes":[0]}],"nodes":[{"mesh":0,"translation":[0.000140957534,0.03155679,0.000289303251],"rotation":[8.146034E-08,0.0,0.0,1.0],"scale":[100.0,100.0,110.10083],"name":"mixtape"}],"meshes":[{"primitives":[{"attributes":{"POSITION":1,"TANGENT":2,"NORMAL":3,"TEXCOORD_0":4},"indices":0,"material":0},{"attributes":{"POSITION":6,"TANGENT":7,"NORMAL":8,"TEXCOORD_0":9},"indices":5,"material":1}],"name":"mixtape"}],"accessors":[{"bufferView":0,"componentType":5123,"count":24,"type":"SCALAR","name":"accessorIndices"},{"bufferView":1,"componentType":5126,"count":12,"max":[0.000114032468,8.800212E-05,5.63502654E-05],"min":[-0.000115646726,-2.11312854E-05,-2.25970889E-05],"type":"VEC3","name":"accessorPositions"},{"bufferView":2,"componentType":5126,"count":12,"type":"VEC4","name":"accessorTangents"},{"bufferView":1,"byteOffset":144,"componentType":5126,"count":12,"type":"VEC3","name":"accessorNormals"},{"bufferView":3,"componentType":5126,"count":12,"type":"VEC2","name":"accessorUVs"},{"bufferView":0,"byteOffset":48,"componentType":5123,"count":17004,"type":"SCALAR","name":"accessorIndices"},{"bufferView":1,"byteOffset":288,"componentType":5126,"count":6381,"max":[0.0005076769,0.000320406922,7.27054139E-05],"min":[-0.0005077137,-0.0003127031,-3.8952232E-05],"type":"VEC3","name":"accessorPositions"},{"bufferView":2,"byteOffset":192,"componentType":5126,"count":6381,"type":"VEC4","name":"accessorTangents"},{"bufferView":1,"byteOffset":76860,"componentType":5126,"count":6381,"type":"VEC3","name":"accessorNormals"},{"bufferView":3,"byteOffset":96,"componentType":5126,"count":6381,"type":"VEC2","name":"accessorUVs"}],"bufferViews":[{"buffer":0,"byteLength":34056,"name":"bufferViewScalar"},{"buffer":0,"byteOffset":34056,"byteLength":153432,"byteStride":12,"name":"bufferViewFloatVec3"},{"buffer":0,"byteOffset":187488,"byteLength":102288,"byteStride":16,"name":"bufferViewFloatVec4"},{"buffer":0,"byteOffset":289776,"byteLength":51144,"byteStride":8,"name":"bufferViewFloatVec2"}],"buffers":[{"uri":"mixtape.bin","byteLength":340920}],"materials":[{"pbrMetallicRoughness":{"baseColorFactor":[0.8,0.8,0.8,0.275590539],"metallicFactor":0.0,"roughnessFactor":0.249303535},"alphaMode":"BLEND","name":"Clear"},{"pbrMetallicRoughness":{"baseColorTexture":{"index":0},"metallicFactor":0.0,"roughnessFactor":0.249303535},"name":"MaterialFBXASC046006"}],"textures":[{"sampler":0,"source":0,"name":"Diffuse_color.png"}],"images":[{"uri":"Diffuse_color.png"}],"samplers":[{"magFilter":9729,"minFilter":9987}]}